<svg xmlns="http://www.w3.org/2000/svg" enable-background="new 0 0 32 32" viewBox="0 0 32 32" id="about">
  <g id="Layer_6">
    <linearGradient id="SVGID_1_" x1="16" x2="16" y1=".375" y2="32.242" gradientUnits="userSpaceOnUse">
      <stop offset="0" stop-color="#ffcc2f"></stop>
      <stop offset="1" stop-color="#ff911c"></stop>
    </linearGradient>
    <path fill="url(#SVGID_1_)" d="M16.5,21h-1c-0.2761,0-0.5-0.2239-0.5-0.5V19c0-2.1509,1.4438-3.7222,2.6045-4.9849C18.2905,13.2686,19,12.4961,19,12c0-2.4795-1.6313-3-3-3c-1.276,0-2.7802,0.4524-2.9781,2.5227C12.9965,11.7883,12.7904,12,12.5236,12h-1.0034c-0.2839,0-0.5222-0.2389-0.5021-0.5221C11.2513,8.1886,13.7008,7,16,7c2.417,0,5,1.3135,5,5c0,1.2759-0.9341,2.292-1.9233,3.3682C18.0557,16.4795,17,17.6284,17,19v1.5C17,20.7761,16.7761,21,16.5,21z M17,24.5v-1c0-0.2761-0.2239-0.5-0.5-0.5h-1c-0.2761,0-0.5,0.2239-0.5,0.5v1c0,0.2761,0.2239,0.5,0.5,0.5h1C16.7761,25,17,24.7761,17,24.5z M16,30C8.2803,30,2,23.7197,2,16S8.2803,2,16,2s14,6.2803,14,14S23.7197,30,16,30z M16,4C9.3833,4,4,9.3833,4,16s5.3833,12,12,12s12-5.3833,12-12S22.6167,4,16,4z"></path>
  </g>
</svg>
