<svg xmlns="http://www.w3.org/2000/svg" width="655.359" height="655.359" fill-rule="evenodd" clip-rule="evenodd" image-rendering="optimizeQuality" shape-rendering="geometricPrecision" text-rendering="geometricPrecision" viewBox="0 0 6.827 6.827" id="allah">
  <path fill-rule="nonzero" d="M5.804 3.34c-.046.259.011.617.068.98.104.66.21 1.334-.261 1.575a.08.08 0 0 1-.11-.101c.124-.394.002-.65-.117-.901-.192-.404-.377-.793.28-1.622a.08.08 0 0 1 .14.07zm-.09 1.004a5.682 5.682 0 0 1-.086-.754c-.4.602-.252.913-.1 1.235.106.223.215.452.179.768.162-.274.084-.766.008-1.25zm-.916-1c-.096.394.035.74.161 1.077.175.462.343.907-.02 1.454l-.067-.044.067.044a.08.08 0 0 1-.074.036L2.74 5.903v-.08.08a.08.08 0 0 1-.08-.079c-.006-.093.009-.239.022-.365l.012-.127a1.62 1.62 0 0 0-.158-.44c-.192-.403-.377-.792.28-1.621a.08.08 0 0 1 .14.07c-.046.258.01.616.068.978.051.324.103.652.086.93h.488a1.943 1.943 0 0 0-.141-.356c-.192-.404-.377-.793.28-1.622a.08.08 0 0 1 .14.07c-.045.258.011.616.068.978.052.324.103.652.086.93h.488a1.943 1.943 0 0 0-.14-.356c-.193-.404-.377-.793.28-1.622a.08.08 0 0 1 .139.073zm.012 1.133c-.102-.271-.207-.549-.206-.859-.377.584-.232.89-.081 1.207a1.73 1.73 0 0 1 .174.504.08.08 0 0 1-.08.08h-.672a.08.08 0 0 1-.08-.09c.033-.275-.022-.627-.077-.975a5.683 5.683 0 0 1-.086-.754c-.4.602-.253.913-.1 1.235a1.73 1.73 0 0 1 .173.504.08.08 0 0 1-.08.08h-.672a.08.08 0 0 1-.08-.09c.034-.275-.021-.627-.076-.975a5.684 5.684 0 0 1-.087-.754c-.4.602-.253.913-.1 1.235.072.15.144.303.173.488a.08.08 0 0 1 0 .022c-.002.034-.007.085-.013.14-.009.09-.019.19-.021.27l2.01.006c.287-.464.137-.862-.019-1.274z"></path>
  <path fill-rule="nonzero" d="M2.694 5.536a.747.747 0 0 1-.282.148c-.125.038-.28.06-.469.06-.688 0-.918-.293-.918-.586 0-.122.153-.267.34-.444.196-.187.427-.406.578-.693.055.103.12.198.19.285.097.124.207.234.312.334a1.056 1.056 0 0 1-.066-.292 2.501 2.501 0 0 1-.122-.141 1.509 1.509 0 0 1-.237-.402.08.08 0 0 0-.152-.006c-.125.337-.392.59-.613.8-.214.203-.39.37-.39.56 0 .372.27.745 1.078.745.205 0 .376-.025.515-.067.084-.025.158-.057.221-.095.002-.062.008-.135.015-.206zM2.02 4.462c.06.153.185.272.289.37.112.107.204.194.204.305a.358.358 0 0 1-.172.31.724.724 0 0 1-.398.096.718.718 0 0 1-.402-.098.358.358 0 0 1-.167-.308c0-.11.092-.198.204-.304.105-.1.232-.22.29-.377a.08.08 0 0 1 .152.006zm.179.487a1.571 1.571 0 0 1-.256-.289 1.571 1.571 0 0 1-.255.289c-.085.08-.154.145-.154.188 0 .064.027.13.095.175a.567.567 0 0 0 .314.07c.156 0 .41-.035.41-.245 0-.043-.07-.108-.154-.188zm1.75-3.928c-.021.074.015.192.052.311.042.134.084.269.062.39a.275.275 0 0 1-.09.155c-.043.039-.1.07-.17.09v.001a.08.08 0 0 1-.09-.119c.054-.103-.008-.179-.068-.252-.138-.17-.272-.333.182-.666l.047.065L3.827.93a.08.08 0 0 1 .123.09zm-.1.358a1.757 1.757 0 0 1-.057-.212c-.16.16-.093.243-.023.328.056.069.113.139.127.226a.104.104 0 0 0 .01-.029c.015-.081-.021-.198-.057-.313zm.595.706c-.02.103.043.231.106.36.113.233.228.469 0 .692l-.057-.057.056.057a.08.08 0 0 1-.063.023l-1.313-.003v-.08.08a.08.08 0 0 1-.08-.079c-.003-.043.006-.1.013-.149l.005-.036a.706.706 0 0 0-.06-.134c-.107-.198-.215-.4.21-.756a.08.08 0 0 1 .127.088c-.021.085.004.214.03.344.022.107.044.215.043.314h.177a1.594 1.594 0 0 0-.033-.05c-.12-.178-.233-.346.183-.696a.08.08 0 0 1 .127.087c-.02.08.02.206.059.333.034.11.069.222.073.326h.172c-.013-.019-.028-.038-.043-.056-.137-.174-.273-.344.14-.69a.08.08 0 0 1 .128.082zm-.038.43a1.423 1.423 0 0 1-.11-.27c-.14.166-.068.256.005.348.05.064.101.127.122.21a.08.08 0 0 1-.076.106h-.383a.08.08 0 0 1-.08-.095c.016-.09-.023-.218-.063-.344a2.006 2.006 0 0 1-.059-.22c-.15.172-.09.264-.025.36.04.058.08.117.099.194a.08.08 0 0 1-.076.105h-.384a.08.08 0 0 1-.08-.095c.018-.093-.008-.22-.034-.348a2.532 2.532 0 0 1-.035-.207c-.161.19-.098.309-.036.425.03.057.061.114.078.18a.08.08 0 0 1 .003.034l-.008.055-.006.045 1.2.002c.116-.14.032-.313-.052-.485z"></path>
  <path fill="#ffcc80" d="M5.628 3.59c-.4.602-.252.913-.1 1.235.106.223.215.452.179.768.162-.274.084-.766.008-1.25a5.682 5.682 0 0 1-.087-.753zM3.865 5.32zm-.922 0zm1.886.432c.287-.464.137-.862-.019-1.274-.102-.271-.207-.549-.206-.859-.377.584-.232.89-.081 1.207a1.73 1.73 0 0 1 .174.504.08.08 0 0 1-.08.08h-.672a.08.08 0 0 1-.08-.09c.033-.275-.022-.627-.077-.975a5.683 5.683 0 0 1-.086-.754c-.4.602-.253.913-.1 1.235a1.73 1.73 0 0 1 .173.504.08.08 0 0 1-.08.08h-.672a.08.08 0 0 1-.08-.09c.034-.275-.021-.627-.076-.975a5.684 5.684 0 0 1-.087-.754c-.4.602-.253.913-.1 1.235.072.15.144.303.173.488a.08.08 0 0 1 0 .022c-.002.034-.007.085-.013.14l-.01.105v.003c-.005.057-.01.113-.011.161l2.01.007z"></path>
  <path fill="#e0e0e0" d="M2.258 5.312a.204.204 0 0 0 .095-.175c0-.043-.07-.108-.154-.188a1.571 1.571 0 0 1-.256-.289 1.571 1.571 0 0 1-.255.289c-.085.08-.154.145-.154.188 0 .064.027.13.095.175a.567.567 0 0 0 .314.07.576.576 0 0 0 .315-.07z"></path>
  <path fill="#ffcc80" d="M3.762 2.25c-.15.172-.09.264-.025.36.04.058.08.117.099.194a.08.08 0 0 1-.076.105h-.384a.08.08 0 0 1-.08-.095c.018-.093-.008-.22-.034-.348a2.532 2.532 0 0 1-.035-.207c-.161.19-.098.309-.036.425.03.057.061.114.078.18a.08.08 0 0 1 .003.034l-.008.055-.006.045 1.2.002c.116-.14.032-.313-.052-.485a1.423 1.423 0 0 1-.11-.27c-.14.166-.068.256.005.348.05.064.101.127.122.21a.08.08 0 0 1-.076.106h-.383a.08.08 0 0 1-.08-.095c.016-.09-.023-.218-.063-.344a2.006 2.006 0 0 1-.059-.22zm.03-1.083c-.16.16-.093.243-.023.328.056.069.113.139.127.226a.104.104 0 0 0 .01-.029c.015-.081-.021-.198-.057-.313a1.757 1.757 0 0 1-.057-.212zM2.415 4.611a3.287 3.287 0 0 1-.283-.305 1.806 1.806 0 0 1-.189-.285c-.15.287-.382.506-.578.693-.187.177-.34.322-.34.444 0 .293.23.586.918.586.19 0 .344-.022.469-.06a.773.773 0 0 0 .26-.13l.01-.095.012-.127a1.62 1.62 0 0 0-.158-.44c-.045-.092-.088-.184-.121-.281zm-.395-.149c.06.153.185.272.289.37.112.107.204.194.204.305a.358.358 0 0 1-.172.31.724.724 0 0 1-.398.096.718.718 0 0 1-.402-.098.358.358 0 0 1-.167-.308c0-.11.092-.198.204-.304.105-.1.232-.22.29-.377a.08.08 0 0 1 .152.006z"></path>
  <path fill="none" d="M0 0h6.827v6.827H0z"></path>
</svg>
