<svg xmlns="http://www.w3.org/2000/svg" width="655.359" height="655.359" fill-rule="evenodd" clip-rule="evenodd" image-rendering="optimizeQuality" shape-rendering="geometricPrecision" text-rendering="geometricPrecision" viewBox="0 0 6.827 6.827" id="sadaqah">
  <path d="m3.424 2.25.11.072c.095.06.142.148.111.249a.264.264 0 0 1-.07.109.468.468 0 0 1-.558.062c-.028-.02-.064-.037-.096-.052-.054-.027-.108-.052-.163-.078-.137-.065-.275-.13-.409-.2a4.098 4.098 0 0 1-.245-.138 1.8 1.8 0 0 1-.207-.144c-.088-.072-.114-.196-.138-.295-.019-.074-.039-.163-.08-.23a2.114 2.114 0 0 0-.154-.222 1.1 1.1 0 0 0-.12-.13.41.41 0 0 0-.11-.074c-.053-.014-.093-.054-.098-.103-.007-.065.048-.122.122-.128l.029-.003L2.453.857l.02-.001c.075 0 .136.053.136.118 0 .057.032.106.075.146.075.07.187.125.287.164.052.02.106.041.16.057.03.008.058.014.09.016.028.001.057 0 .086-.002.065-.004.129-.006.194-.006a1.5 1.5 0 0 1 .217.016c.315.046.6.187.853.352.278.182.531.4.775.616l.122.108.032.03c.096.085.154.196.121.316a.304.304 0 0 1-.095.148c-.045.04-.1.07-.16.088a.578.578 0 0 1-.246.021.629.629 0 0 1-.262-.096L3.757 2.24c-.11.011-.222.015-.333.012zm-.021 2.326-.11-.071c-.095-.06-.143-.149-.111-.25a.264.264 0 0 1 .069-.108.468.468 0 0 1 .558-.062c.029.019.065.036.097.052l.162.077c.138.065.275.13.41.2.083.044.165.09.245.138a1.8 1.8 0 0 1 .207.144c.088.073.114.197.138.296.018.074.038.163.079.23.047.076.098.151.155.222a1.1 1.1 0 0 0 .12.129.41.41 0 0 0 .11.075c.053.014.092.053.098.103.006.064-.049.122-.123.128l-.028.002c-.172.015-.344.034-.515.05-.107.011-.215.021-.322.029a4.123 4.123 0 0 1-.289.012c-.075 0-.135-.053-.135-.118 0-.057-.033-.106-.076-.147a.917.917 0 0 0-.286-.163 1.821 1.821 0 0 0-.16-.057.392.392 0 0 0-.09-.016c-.028-.001-.058 0-.086.002a3.632 3.632 0 0 1-.194.006 1.5 1.5 0 0 1-.218-.016c-.314-.046-.6-.187-.852-.352a6.82 6.82 0 0 1-.775-.617l-.122-.108-.033-.029c-.096-.085-.153-.196-.12-.317a.304.304 0 0 1 .094-.147c.045-.04.101-.07.161-.089a.578.578 0 0 1 .246-.02.629.629 0 0 1 .262.095l1.1.709c.111-.011.223-.015.334-.012zm.01-1.649c.152 0 .297.053.404.147.108.093.168.22.168.352 0 .133-.06.26-.168.353a.614.614 0 0 1-.404.146.614.614 0 0 1-.404-.146.468.468 0 0 1-.167-.353c0-.132.06-.259.167-.352a.614.614 0 0 1 .404-.147z"></path>
  <path fill="none" d="M0 0h6.827v6.827H0z"></path>
</svg>
